<svg width="240" height="231" viewBox="0 0 240 231" fill="none" xmlns="http://www.w3.org/2000/svg">
<path d="M107.958 15.1395C114.118 7.39487 125.882 7.39487 132.042 15.1395V15.1395C136.637 20.9167 144.687 22.6164 151.226 19.19L151.96 18.8049C160.536 14.3106 171.056 19.0403 173.386 28.438V28.438C175.141 35.5188 181.756 40.2947 189.029 39.733L190.238 39.6397C199.765 38.904 207.375 47.444 205.551 56.8239V56.8239C204.169 63.93 208.253 70.9635 215.109 73.2862L215.862 73.5412C224.95 76.6198 228.48 87.6026 222.888 95.3993V95.3993C218.661 101.292 219.535 109.43 224.9 114.309V114.309C232.055 120.817 230.875 132.417 222.534 137.314L222.23 137.493C215.989 141.157 213.46 148.898 216.334 155.54V155.54C220.128 164.307 214.442 174.262 204.962 175.448L203.872 175.584C196.668 176.485 191.205 182.516 191.019 189.774V189.774C190.774 199.372 181.532 206.154 172.303 203.51L171.229 203.202C164.175 201.181 156.684 204.494 153.434 211.074V211.074C149.099 219.848 137.718 222.29 130.165 216.067L129.857 215.813C124.132 211.097 115.868 211.097 110.143 215.813L109.835 216.067C102.282 222.29 90.9008 219.848 86.5662 211.074V211.074C83.3159 204.494 75.8254 201.181 68.7708 203.202L67.6974 203.51C58.4678 206.154 49.2264 199.372 48.9809 189.774V189.774C48.7953 182.516 43.332 176.485 36.1282 175.584L35.0382 175.448C25.5584 174.262 19.8717 164.307 23.6658 155.54V155.54C26.5396 148.898 24.0106 141.157 17.7704 137.493L17.4662 137.314C9.12544 132.417 7.9453 120.817 15.1004 114.309V114.309C20.4647 109.43 21.3385 101.292 17.1123 95.3993V95.3993C11.5204 87.6026 15.0505 76.6198 24.1378 73.5412L24.8906 73.2862C31.747 70.9635 35.8307 63.93 34.4488 56.8239V56.8239C32.6247 47.444 40.235 38.904 49.7623 39.6397L50.9706 39.733C58.2441 40.2947 64.8587 35.5188 66.6142 28.438V28.438C68.9442 19.0403 79.4638 14.3106 88.0397 18.8049L88.7744 19.19C95.3127 22.6164 103.363 20.9167 107.958 15.1395V15.1395Z" fill="#FFD600"/>
<path d="M124.049 189.969L124.469 200.25L122.958 200.312L122.538 190.031L124.049 189.969Z" fill="black"/>
<path d="M116.505 190.017L115.924 197.653L114.515 197.546L114.563 196.904C114.383 197.054 114.182 197.205 113.96 197.356C113.738 197.512 113.538 197.584 113.361 197.57C113.129 197.553 112.939 197.463 112.792 197.303C112.645 197.142 112.541 196.944 112.479 196.71C112.417 196.476 112.396 196.238 112.414 195.996L112.889 189.742L114.299 189.849L113.845 195.824C113.834 195.973 113.851 196.08 113.898 196.144C113.945 196.208 114.028 196.245 114.149 196.254C114.252 196.262 114.343 196.232 114.423 196.163C114.498 196.098 114.57 196.02 114.638 195.926L115.095 189.91L116.505 190.017Z" fill="black"/>
<path d="M104.835 188.398C105.269 188.486 105.581 188.649 105.771 188.887C105.961 189.125 106.064 189.432 106.079 189.806C106.089 190.179 106.045 190.613 105.945 191.107L105.142 195.087L105.842 195.228L105.59 196.477L104.89 196.336L104.517 198.189L103.131 197.909L103.504 196.056L102.551 195.864L102.802 194.615L103.756 194.808L104.599 190.629C104.658 190.336 104.658 190.11 104.6 189.951C104.541 189.796 104.413 189.699 104.216 189.659C104.129 189.641 104.052 189.633 103.986 189.634C103.914 189.634 103.856 189.639 103.811 189.649L104.067 188.379C104.166 188.361 104.273 188.352 104.387 188.351C104.498 188.345 104.647 188.36 104.835 188.398Z" fill="black"/>
<path d="M96.7035 186.23C97.2391 186.409 97.6005 186.733 97.7878 187.204C97.9691 187.678 97.9704 188.183 97.7916 188.718L96.5727 192.37C96.3835 192.937 96.0772 193.346 95.6535 193.598C95.2299 193.851 94.7436 193.885 94.1947 193.702C93.8362 193.582 93.5559 193.398 93.3538 193.148C93.1473 192.897 93.0227 192.607 92.98 192.278C92.9359 191.953 92.9737 191.612 93.0933 191.253L93.7981 189.142L96.0158 189.882L96.5433 188.302C96.6039 188.12 96.6202 187.939 96.5922 187.757C96.5583 187.578 96.4595 187.462 96.2957 187.407C96.1231 187.35 95.9777 187.38 95.8596 187.498C95.7371 187.614 95.6418 187.774 95.5739 187.978L95.3079 188.775L94.0596 188.358L94.3389 187.522C94.5265 186.959 94.8307 186.557 95.2513 186.313C95.6661 186.073 96.1502 186.045 96.7035 186.23ZM95.6657 190.931L94.6962 190.607L94.3549 191.63C94.2885 191.829 94.2662 192.014 94.2883 192.183C94.3045 192.356 94.4033 192.473 94.5848 192.533C94.753 192.589 94.9028 192.553 95.0342 192.425C95.1641 192.301 95.2608 192.144 95.3244 191.954L95.6657 190.931Z" fill="black"/>
<path d="M89.2138 183.463L85.9153 190.374L84.6392 189.765L85.007 188.994C84.9014 189.15 84.7521 189.263 84.5592 189.331C84.3663 189.399 84.1592 189.427 83.9377 189.414C83.712 189.4 83.5044 189.347 83.3148 189.257L83.9902 187.842C84.0349 187.889 84.0878 187.93 84.149 187.964C84.204 188.001 84.2609 188.033 84.3199 188.061C84.5978 188.194 84.8572 188.224 85.0981 188.153C85.3389 188.082 85.5216 187.916 85.6462 187.655L87.9377 182.853L89.2138 183.463Z" fill="black"/>
<path d="M80.5964 178.74C80.8717 178.916 81.0204 179.207 81.0426 179.615C81.0648 180.022 80.8925 180.513 80.5258 181.087C80.1716 181.641 79.7684 182.012 79.3164 182.2C78.8605 182.385 78.3154 182.449 77.6813 182.393C77.4816 182.376 77.3106 182.367 77.1681 182.364C77.0257 182.362 76.9251 182.381 76.8663 182.421L76.4141 183.129C76.3111 183.29 76.2428 183.44 76.2093 183.579C76.1693 183.72 76.2221 183.837 76.3676 183.93C76.5013 184.015 76.632 184.01 76.7596 183.914C76.8846 183.822 77.0062 183.684 77.1243 183.499L77.3202 183.192L78.5119 183.954L78.3385 184.225C78.1124 184.579 77.8489 184.84 77.548 185.007C77.2406 185.177 76.923 185.253 76.5952 185.238C76.2609 185.224 75.9404 185.119 75.6336 184.923C75.3387 184.734 75.127 184.502 74.9986 184.226C74.8677 183.954 74.8199 183.661 74.8552 183.346C74.884 183.032 74.9964 182.721 75.1923 182.415L77.6492 178.568C77.8326 178.281 77.9679 178.052 78.0552 177.881C78.14 177.713 78.2158 177.551 78.2826 177.395L79.4506 178.141C79.4616 178.236 79.434 178.349 79.3679 178.478C79.2979 178.605 79.2503 178.688 79.2252 178.728L79.3078 178.781C79.5217 178.662 79.7417 178.595 79.968 178.579C80.1903 178.561 80.3997 178.614 80.5964 178.74ZM79.3665 179.599C79.2289 179.511 79.0827 179.484 78.928 179.518C78.7694 179.55 78.6549 179.621 78.5846 179.731L77.6049 181.264C77.9698 181.326 78.2983 181.275 78.5903 181.113C78.8758 180.952 79.1166 180.718 79.3125 180.412C79.3979 180.278 79.4578 180.128 79.4921 179.961C79.5264 179.795 79.4845 179.674 79.3665 179.599Z" fill="black"/>
<path d="M72.1989 172.701C72.6744 173.1 72.9003 173.543 72.8766 174.028C72.8493 174.511 72.6136 175.017 72.1697 175.546L69.9336 178.211C69.4867 178.744 69.0294 179.064 68.5618 179.171C68.0876 179.279 67.6128 179.133 67.1373 178.734C66.6618 178.335 66.436 177.893 66.4597 177.407C66.4798 176.919 66.7119 176.41 67.1558 175.881L67.5427 175.42L68.626 176.328L68.1221 176.929C67.9841 177.093 67.8901 177.249 67.84 177.396C67.7899 177.543 67.8256 177.667 67.9472 177.769C68.0687 177.871 68.1972 177.881 68.3325 177.8C68.4648 177.722 68.5984 177.603 68.7334 177.442L71.2035 174.498C71.3384 174.337 71.4343 174.183 71.4909 174.035C71.5446 173.892 71.5106 173.769 71.3891 173.667C71.2675 173.565 71.1388 173.551 71.0029 173.626C70.867 173.701 70.7301 173.82 70.5921 173.985L70.0882 174.586L69.005 173.677L69.3919 173.215C69.8358 172.686 70.2967 172.369 70.7744 172.265C71.2486 172.157 71.7234 172.303 72.1989 172.701Z" fill="black"/>
<path d="M64.9218 165.781C65.2239 166.105 65.3827 166.42 65.3982 166.724C65.4137 167.028 65.3184 167.337 65.1124 167.65C64.9032 167.959 64.6141 168.286 64.2452 168.629L61.2734 171.395L61.7598 171.918L60.8273 172.786L60.3408 172.263L58.9574 173.551L57.994 172.516L59.3774 171.228L58.7145 170.516L59.6471 169.648L60.31 170.36L63.4304 167.456C63.649 167.252 63.7811 167.069 63.8266 166.905C63.8686 166.745 63.8213 166.592 63.6846 166.445C63.6242 166.38 63.5666 166.328 63.5118 166.29C63.4539 166.248 63.4038 166.218 63.3615 166.2L64.3094 165.318C64.4003 165.361 64.4925 165.415 64.5859 165.481C64.6795 165.541 64.7915 165.641 64.9218 165.781Z" fill="black"/>
<path d="M60.4731 160.672L54.3278 165.241L53.4841 164.107L59.6293 159.537L60.4731 160.672ZM53.3504 165.968L52.2158 166.812L51.372 165.677L52.5067 164.834L53.3504 165.968Z" fill="black"/>
<path d="M55.5993 153.487L49.586 158.39L48.901 157.201L52.5088 154.573L53.155 154.152L53.0991 154.055L52.4109 154.403L48.3279 156.206L47.643 155.017L54.9004 152.274L55.5993 153.487Z" fill="black"/>
<path d="M50.985 144.098C51.2013 144.62 51.1932 145.106 50.9605 145.556C50.7217 146.004 50.3416 146.336 49.82 146.552L46.2636 148.027C45.7118 148.255 45.2018 148.293 44.7336 148.138C44.2654 147.984 43.9205 147.639 43.6989 147.105C43.5541 146.756 43.5096 146.423 43.5654 146.107C43.6194 145.786 43.7567 145.502 43.9772 145.254C44.1933 145.008 44.476 144.812 44.8251 144.667L46.8814 143.815L47.7769 145.974L49.3159 145.336C49.4926 145.263 49.6403 145.156 49.759 145.016C49.8716 144.873 49.8949 144.722 49.8287 144.563C49.759 144.395 49.6409 144.305 49.4743 144.293C49.306 144.277 49.1227 144.31 48.9244 144.392L48.1485 144.714L47.6444 143.498L48.4591 143.16C49.0066 142.933 49.5101 142.899 49.9697 143.057C50.4231 143.212 50.7616 143.56 50.985 144.098ZM46.7553 146.398L46.3638 145.454L45.368 145.867C45.1741 145.947 45.0202 146.052 44.9066 146.18C44.7868 146.305 44.7636 146.456 44.8369 146.633C44.9048 146.797 45.0303 146.886 45.2134 146.901C45.3921 146.918 45.5741 146.888 45.7595 146.811L46.7553 146.398Z" fill="black"/>
<path d="M46.06 126.886C46.1248 127.306 46.0835 127.681 45.9361 128.01C45.788 128.335 45.5601 128.602 45.2522 128.81C44.9444 129.018 44.5829 129.154 44.1679 129.219L36.0877 130.467L35.8569 128.973L43.937 127.724C44.1353 127.694 44.3045 127.627 44.4446 127.525C44.5801 127.424 44.6343 127.286 44.6072 127.111C44.5787 126.926 44.485 126.808 44.326 126.758C44.1624 126.707 43.9814 126.697 43.7831 126.728L35.703 127.976L35.4721 126.482L43.5523 125.234C43.9673 125.17 44.3534 125.193 44.7104 125.303C45.0667 125.408 45.3648 125.596 45.6048 125.866C45.8441 126.131 45.9958 126.471 46.06 126.886Z" fill="black"/>
<path d="M45.0671 118.227L34.7818 118.537L34.7362 117.026L45.0216 116.716L45.0671 118.227Z" fill="black"/>
<path d="M46.0785 111.063L35.1434 106.39L35.239 105.288L46.1777 109.919L46.0785 111.063Z" fill="black"/>
<path d="M46.8728 98.8947C46.779 99.3089 46.603 99.6423 46.3449 99.8948C46.0878 100.143 45.7779 100.307 45.4151 100.388C45.0524 100.468 44.6662 100.462 44.2565 100.369L36.2824 98.5641L36.6162 97.0894L44.5904 98.8947C44.7861 98.9391 44.9678 98.9395 45.1356 98.8962C45.2987 98.8518 45.3999 98.7431 45.439 98.5701C45.4803 98.3881 45.4363 98.2441 45.3071 98.1383C45.1734 98.0315 45.0087 97.9559 44.813 97.9116L36.8388 96.1063L37.1727 94.6316L45.1469 96.4369C45.5565 96.5297 45.9071 96.6928 46.1988 96.9263C46.4914 97.1552 46.6999 97.4393 46.8241 97.7784C46.9493 98.113 46.9655 98.4851 46.8728 98.8947Z" fill="black"/>
<path d="M48.9582 90.8294L44.5057 87.3432L39.3569 87.128L39.887 85.7418L42.6142 85.9004L42.8123 85.9312L42.8323 85.8789L42.6642 85.7697L40.527 84.0681L41.0571 82.6819L45.0357 85.957L50.6783 86.3311L50.1483 87.7172L46.9745 87.4329L46.7814 87.389L46.7614 87.4413L46.9345 87.5375L49.4882 89.4433L48.9582 90.8294Z" fill="black"/>
<path d="M57.2042 73.9406L48.7791 68.0328L49.6632 66.7719C49.9419 66.3746 50.2426 66.0839 50.5654 65.8998C50.8882 65.7158 51.2652 65.6496 51.6964 65.7012C52.1276 65.7528 52.6419 65.9338 53.2392 66.2444C53.8392 66.5511 54.5556 66.9965 55.3886 67.5806C56.2254 68.1673 56.8902 68.6905 57.383 69.15C57.8746 69.6031 58.2182 70.0235 58.4136 70.4113C58.6052 70.7965 58.6695 71.1721 58.6065 71.5383C58.5397 71.9019 58.367 72.2823 58.0883 72.6797L57.2042 73.9406ZM56.8343 71.8345C57.0486 71.5289 57.0796 71.2286 56.9273 70.9337C56.775 70.6388 56.4847 70.3213 56.0564 69.981C55.6281 69.6408 55.1064 69.255 54.4912 68.8237C53.8684 68.387 53.328 68.0279 52.8698 67.7465C52.4078 67.4625 52.0147 67.3037 51.6906 67.2702C51.3653 67.2302 51.0968 67.3611 50.8851 67.6629L56.8343 71.8345Z" fill="black"/>
<path d="M64.8296 64.3734C64.4457 64.7875 64.0006 64.9826 63.4945 64.9588C62.9881 64.9284 62.5279 64.7212 62.1138 64.3373L59.2907 61.7196C58.8527 61.3135 58.6062 60.8654 58.5514 60.3755C58.4966 59.8855 58.6659 59.4284 59.0593 59.0041C59.3163 58.7269 59.6002 58.5477 59.9108 58.4667C60.2246 58.3822 60.5402 58.3884 60.8576 58.4854C61.1715 58.5792 61.4671 58.7546 61.7443 59.0116L63.3766 60.5251L61.7869 62.2396L63.0086 63.3723C63.1489 63.5024 63.3075 63.5922 63.4844 63.6416C63.661 63.6845 63.808 63.6426 63.9254 63.516C64.0492 63.3825 64.0817 63.2377 64.023 63.0814C63.9674 62.9217 63.8609 62.7688 63.7035 62.6229L63.0875 62.0517L63.9823 61.0867L64.6291 61.6864C65.0636 62.0894 65.3049 62.5327 65.3529 63.0163C65.4007 63.4933 65.2262 63.9457 64.8296 64.3734ZM60.9759 61.4876L61.6708 60.7381L60.8803 60.0052C60.7263 59.8624 60.5675 59.766 60.4038 59.7161C60.2398 59.6595 60.0928 59.7014 59.9627 59.8417C59.8422 59.9718 59.8132 60.1231 59.8759 60.2957C59.9351 60.4652 60.0383 60.6182 60.1854 60.7546L60.9759 61.4876Z" fill="black"/>
<path d="M71.1931 58.0533L65.3396 52.9608L66.3946 52.0837L69.5977 55.1923L70.1222 55.7575L70.2083 55.686L69.7484 55.067L67.2774 51.3499L68.3325 50.4728L72.2697 57.1583L71.1931 58.0533Z" fill="black"/>
<path d="M79.6607 51.9103C79.1834 52.2121 78.7033 52.2866 78.2201 52.1338C77.7385 51.9746 77.3467 51.6564 77.0449 51.1791L74.9872 47.9252C74.6679 47.4203 74.5446 46.9241 74.6172 46.4365C74.6898 45.9488 74.9707 45.5504 75.4598 45.2411C75.7792 45.039 76.0995 44.9387 76.4206 44.9399C76.7456 44.9387 77.049 45.0256 77.3309 45.2008C77.6103 45.3719 77.851 45.6172 78.0531 45.9367L79.2428 47.8181L77.2668 49.0677L78.1572 50.4758C78.2595 50.6375 78.3897 50.7649 78.548 50.8581C78.7078 50.9448 78.8606 50.942 79.0066 50.8497C79.1604 50.7524 79.2289 50.6207 79.2122 50.4546C79.1995 50.286 79.1357 50.111 79.021 49.9295L78.572 49.2196L79.6843 48.5162L80.1557 49.2617C80.4725 49.7626 80.592 50.2529 80.5144 50.7327C80.4383 51.206 80.1537 51.5985 79.6607 51.9103ZM76.6756 48.1329L77.5394 47.5867L76.9632 46.6756C76.851 46.4981 76.7222 46.3642 76.5768 46.274C76.4328 46.1773 76.28 46.1801 76.1182 46.2823C75.9684 46.3771 75.9016 46.516 75.9179 46.6989C75.9317 46.8779 75.9922 47.0522 76.0995 47.2218L76.6756 48.1329Z" fill="black"/>
<path d="M86.6205 47.8314L82.1705 38.5534L83.4454 37.9419L87.8955 47.2199L86.6205 47.8314Z" fill="black"/>
<path d="M95.3379 44.2714C94.8038 44.4547 94.3232 44.4198 93.8959 44.1668C93.4671 43.9093 93.1581 43.5047 92.9687 42.953L91.7237 39.3247C91.5344 38.7729 91.5306 38.266 91.7125 37.804C91.8929 37.3375 92.2501 37.0126 92.7842 36.8294C93.3139 36.6476 93.7931 36.6854 94.2219 36.9429C94.6536 37.1944 94.9641 37.596 95.1534 38.1478L96.3984 41.7761C96.5878 42.3279 96.5901 42.8377 96.4053 43.3057C96.2234 43.7677 95.8676 44.0897 95.3379 44.2714ZM94.9381 43.1061C95.1102 43.047 95.2059 42.9377 95.2252 42.7782C95.2429 42.6142 95.2147 42.4241 95.1404 42.2078L93.8954 38.5795C93.8197 38.3588 93.7252 38.1913 93.6121 38.0772C93.4989 37.9631 93.3562 37.9356 93.1841 37.9947C93.0119 38.0537 92.9162 38.1631 92.897 38.3226C92.8777 38.4822 92.906 38.6723 92.9817 38.893L94.2267 42.5213C94.3025 42.742 94.3969 42.9094 94.5101 43.0235C94.6233 43.1377 94.7659 43.1652 94.9381 43.1061Z" fill="black"/>
<path d="M103.489 44.5018L101.436 34.4189L102.821 34.1367L102.922 34.6305C103.062 34.4305 103.216 34.2515 103.384 34.0935C103.552 33.9355 103.723 33.8388 103.896 33.8034C104.134 33.7549 104.346 33.7881 104.531 33.9027C104.72 34.0119 104.876 34.1706 104.999 34.3788C105.127 34.5861 105.216 34.8109 105.265 35.0533L106.24 39.841C106.29 40.0834 106.297 40.3272 106.261 40.5727C106.224 40.8135 106.14 41.0211 106.009 41.1954C105.878 41.3698 105.698 41.4802 105.469 41.5268C105.277 41.5659 105.078 41.5447 104.871 41.463C104.663 41.3768 104.455 41.2714 104.249 41.1467L104.875 44.2196L103.489 44.5018ZM104.587 40.3493C104.692 40.3279 104.761 40.2805 104.793 40.2072C104.831 40.1329 104.836 40.0318 104.81 39.9037L103.952 35.6922C103.917 35.5184 103.865 35.3932 103.797 35.3166C103.734 35.239 103.65 35.2109 103.544 35.2324C103.444 35.2528 103.348 35.3177 103.256 35.4269C103.163 35.5316 103.13 35.6502 103.157 35.7829L104.014 39.9944C104.037 40.1041 104.113 40.1958 104.242 40.2695C104.371 40.3432 104.486 40.3698 104.587 40.3493Z" fill="black"/>
<path d="M114.311 40.3149C113.748 40.3551 113.289 40.1937 112.936 39.8306C112.587 39.4625 112.392 38.9969 112.352 38.4336L112.078 34.5934C112.035 33.9976 112.161 33.502 112.456 33.1067C112.75 32.7114 113.186 32.4931 113.763 32.4519C114.14 32.425 114.47 32.488 114.752 32.6409C115.039 32.7935 115.266 33.0136 115.431 33.3012C115.596 33.5842 115.692 33.9142 115.719 34.2912L115.878 36.5116L113.546 36.6781L113.665 38.3399C113.678 38.5307 113.733 38.7046 113.828 38.8616C113.928 39.0135 114.064 39.0833 114.236 39.071C114.418 39.0581 114.54 38.9744 114.604 38.8202C114.673 38.6656 114.699 38.4812 114.684 38.2671L114.624 37.4292L115.937 37.3355L116 38.2152C116.042 38.8064 115.915 39.295 115.62 39.681C115.329 40.062 114.893 40.2733 114.311 40.3149ZM113.467 35.5749L114.486 35.5021L114.41 34.4269C114.395 34.2174 114.345 34.0385 114.259 33.8902C114.178 33.7369 114.042 33.6671 113.851 33.6808C113.674 33.6934 113.55 33.7842 113.478 33.9531C113.405 34.1173 113.376 34.2995 113.39 34.4997L113.467 35.5749Z" fill="black"/>
<path d="M122.289 39.9993L122.686 32.3516L124.098 32.4249L124.054 33.2778C124.092 33.0928 124.186 32.9318 124.338 32.7948C124.49 32.6579 124.671 32.5528 124.88 32.4795C125.095 32.4065 125.306 32.3755 125.516 32.3863L125.435 33.9522C125.375 33.9258 125.311 33.9084 125.241 33.9001C125.177 33.8874 125.112 33.8794 125.046 33.876C124.739 33.86 124.487 33.9311 124.292 34.0892C124.097 34.2473 123.992 34.4708 123.977 34.7598L123.701 40.0726L122.289 39.9993Z" fill="black"/>
<path d="M139.619 39.3515L139.977 38.0705L141.932 38.6163L141.575 39.8973L139.619 39.3515Z" fill="black"/>
<path d="M154.261 48.2088L159.186 39.1739L162.345 40.896L161.601 42.2604L159.769 41.2621L158.476 43.6345L159.705 44.3045L158.962 45.669L157.732 44.9989L155.588 48.9325L154.261 48.2088Z" fill="black"/>
<path d="M162.445 53.0865L166.908 46.8638L168.057 47.6879L167.56 48.3818C167.691 48.2465 167.858 48.1622 168.06 48.1289C168.262 48.0957 168.471 48.1048 168.686 48.1562C168.906 48.2104 169.101 48.2986 169.272 48.421L168.358 49.6952C168.322 49.6408 168.277 49.5914 168.223 49.5468C168.175 49.5011 168.125 49.4593 168.072 49.4212C167.822 49.2417 167.572 49.1658 167.322 49.1935C167.073 49.2212 166.863 49.3526 166.695 49.5877L163.594 53.9107L162.445 53.0865Z" fill="black"/>
<path d="M170.579 59.6786C170.164 59.2956 169.967 58.856 169.987 58.3599C170.01 57.8603 170.219 57.3962 170.614 56.9675L173.216 54.1487C173.612 53.72 174.056 53.476 174.549 53.4166C175.045 53.3538 175.501 53.5139 175.916 53.8969C176.327 54.2767 176.522 54.7164 176.499 55.216C176.482 55.7153 176.276 56.1793 175.881 56.608L173.279 59.4268C172.883 59.8555 172.436 60.0996 171.936 60.1592C171.443 60.2186 170.991 60.0584 170.579 59.6786ZM171.415 58.7733C171.549 58.8967 171.69 58.929 171.84 58.8702C171.993 58.8079 172.147 58.6928 172.302 58.5247L174.903 55.7059C175.062 55.5345 175.164 55.3718 175.211 55.218C175.257 55.0643 175.214 54.9256 175.08 54.8022C174.946 54.6788 174.805 54.6465 174.655 54.7053C174.506 54.7641 174.352 54.8793 174.194 55.0507L171.592 57.8696C171.434 58.041 171.331 58.2036 171.284 58.3574C171.238 58.5112 171.281 58.6498 171.415 58.7733Z" fill="black"/>
<path d="M176.268 65.2743L182.146 60.3656L183.052 61.4509L182.558 61.8637C182.791 61.8879 183.039 61.9268 183.303 61.9803C183.57 62.0308 183.761 62.1241 183.874 62.2602C184.024 62.4393 184.092 62.6376 184.079 62.8551C184.066 63.0726 183.997 63.2851 183.873 63.4926C183.748 63.7001 183.593 63.8816 183.406 64.0371L178.592 68.0574L177.686 66.9721L182.285 63.1313C182.4 63.0356 182.464 62.9486 182.478 62.8703C182.491 62.792 182.459 62.7063 182.381 62.6131C182.316 62.5343 182.23 62.4902 182.125 62.4808C182.026 62.4719 181.92 62.4756 181.806 62.4919L177.175 66.3596L176.268 65.2743Z" fill="black"/>
<path d="M183.246 74.7677C183.006 74.3951 182.905 74.0577 182.943 73.7554C182.981 73.453 183.129 73.166 183.387 72.8942C183.648 72.6264 183.99 72.3559 184.413 72.0828L187.825 69.8829L187.439 69.2828L188.509 68.5925L188.896 69.1926L190.485 68.1685L191.251 69.3569L189.662 70.381L190.19 71.1988L189.119 71.8891L188.592 71.0713L185.009 73.3813C184.758 73.5431 184.595 73.7005 184.522 73.8534C184.452 74.0038 184.472 74.1633 184.581 74.3319C184.629 74.4065 184.676 74.4674 184.723 74.5147C184.773 74.566 184.817 74.6042 184.856 74.6294L183.767 75.3311C183.685 75.2729 183.604 75.203 183.524 75.1215C183.442 75.0465 183.349 74.9286 183.246 74.7677Z" fill="black"/>
<path d="M189.555 79.2705L190.749 78.6848L191.643 80.5074L190.449 81.0931L189.555 79.2705Z" fill="black"/>
<path d="M190.736 90.1672C190.551 89.6336 190.589 89.1491 190.848 88.7138C191.113 88.2814 191.513 87.9729 192.046 87.7884L195.685 86.5306C196.25 86.3354 196.761 86.329 197.219 86.5113C197.677 86.6937 198.001 87.0583 198.19 87.6052C198.313 87.9625 198.338 88.2972 198.263 88.6095C198.19 88.9261 198.035 89.2016 197.8 89.4359C197.57 89.6687 197.276 89.8468 196.919 89.9703L194.815 90.6976L194.051 88.4879L192.476 89.0322C192.296 89.0947 192.142 89.1924 192.015 89.3251C191.894 89.4608 191.861 89.6102 191.918 89.7734C191.977 89.9454 192.09 90.0423 192.255 90.0641C192.422 90.0902 192.607 90.0683 192.81 89.9981L193.604 89.7237L194.034 90.9675L193.201 91.2556C192.64 91.4493 192.136 91.4534 191.686 91.268C191.243 91.0855 190.926 90.7186 190.736 90.1672ZM195.096 88.1265L195.43 89.0925L196.449 88.7403C196.647 88.6716 196.807 88.5769 196.928 88.456C197.056 88.338 197.088 88.1886 197.025 88.0078C196.967 87.8402 196.847 87.7433 196.666 87.7173C196.488 87.6898 196.305 87.7088 196.115 87.7743L195.096 88.1265Z" fill="black"/>
<path d="M193.113 97.7768L200.613 96.2313L200.898 97.6162L200.268 97.7462C200.462 97.8778 200.662 98.0294 200.869 98.2012C201.08 98.372 201.204 98.5443 201.24 98.718C201.287 98.9465 201.253 99.1536 201.139 99.3391C201.025 99.5246 200.864 99.6793 200.656 99.8032C200.448 99.927 200.225 100.013 199.987 100.062L193.844 101.328L193.559 99.9432L199.428 98.734C199.574 98.7039 199.672 98.6575 199.721 98.595C199.77 98.5325 199.782 98.4418 199.758 98.323C199.737 98.2224 199.682 98.1431 199.594 98.0851C199.511 98.0306 199.416 97.9836 199.308 97.944L193.398 99.1617L193.113 97.7768Z" fill="black"/>
<path d="M194.693 108.394C194.676 108.161 194.733 107.958 194.865 107.785C194.998 107.611 195.175 107.474 195.397 107.373C195.623 107.272 195.86 107.213 196.106 107.195L200.979 106.836C201.226 106.817 201.466 106.839 201.7 106.902C201.934 106.969 202.13 107.078 202.286 107.231C202.447 107.383 202.536 107.577 202.553 107.815C202.567 107.991 202.52 108.182 202.413 108.386C202.307 108.591 202.176 108.788 202.021 108.977L205.149 108.746L205.253 110.156L194.991 110.913L194.887 109.503L195.389 109.466C195.213 109.291 195.055 109.118 194.916 108.946C194.782 108.773 194.707 108.589 194.693 108.394ZM196.069 108.966C196.076 109.073 196.128 109.17 196.223 109.257C196.319 109.348 196.432 109.389 196.562 109.379L200.849 109.063C200.96 109.055 201.061 108.998 201.152 108.893C201.243 108.793 201.284 108.69 201.276 108.582C201.269 108.48 201.219 108.4 201.125 108.341C201.037 108.282 200.925 108.257 200.79 108.267L196.504 108.583C196.373 108.593 196.266 108.634 196.183 108.705C196.099 108.777 196.061 108.864 196.069 108.966Z" fill="black"/>
<path d="M194.46 125.038L204.608 126.741L204.353 128.26C204.273 128.739 204.127 129.13 203.914 129.435C203.702 129.741 203.391 129.963 202.979 130.102C202.568 130.241 202.026 130.299 201.353 130.276C200.679 130.258 199.841 130.164 198.838 129.996C197.83 129.827 197.004 129.641 196.362 129.439C195.723 129.242 195.232 129.01 194.888 128.744C194.55 128.479 194.33 128.168 194.229 127.81C194.133 127.454 194.125 127.036 194.205 126.557L194.46 125.038ZM195.701 126.78C195.639 127.148 195.74 127.432 196.005 127.633C196.269 127.833 196.668 127.995 197.201 128.117C197.734 128.24 198.371 128.363 199.112 128.488C199.862 128.614 200.505 128.705 201.039 128.761C201.579 128.819 202.002 128.793 202.309 128.683C202.62 128.579 202.805 128.346 202.867 127.982L195.701 126.78Z" fill="black"/>
<path d="M191.699 136.957C191.867 136.418 192.184 136.05 192.651 135.854C193.121 135.663 193.626 135.652 194.165 135.82L197.84 136.966C198.411 137.144 198.826 137.442 199.087 137.861C199.347 138.279 199.391 138.765 199.219 139.317C199.106 139.678 198.927 139.962 198.682 140.169C198.435 140.38 198.148 140.511 197.819 140.56C197.496 140.611 197.153 140.58 196.793 140.467L194.667 139.804L195.364 137.572L193.773 137.076C193.591 137.019 193.409 137.006 193.228 137.038C193.05 137.075 192.935 137.177 192.884 137.341C192.83 137.515 192.863 137.66 192.983 137.776C193.102 137.896 193.264 137.988 193.469 138.052L194.271 138.302L193.879 139.558L193.037 139.296C192.471 139.119 192.062 138.823 191.811 138.407C191.562 137.997 191.525 137.514 191.699 136.957ZM196.419 137.902L196.115 138.877L197.144 139.198C197.345 139.261 197.53 139.279 197.699 139.254C197.871 139.234 197.986 139.133 198.043 138.95C198.096 138.781 198.057 138.632 197.926 138.503C197.799 138.376 197.64 138.282 197.449 138.223L196.419 137.902Z" fill="black"/>
<path d="M188.678 145.402L196.154 147.476L195.58 148.722L191.35 147.296L190.633 147.012L190.586 147.114L191.268 147.474L195.099 149.765L194.525 151.011L188.092 146.673L188.678 145.402Z" fill="black"/>
<path d="M183.682 154.593C183.983 154.115 184.384 153.841 184.886 153.771C185.389 153.707 185.88 153.825 186.358 154.126L189.616 156.176C190.122 156.494 190.447 156.889 190.591 157.36C190.736 157.832 190.654 158.312 190.346 158.802C190.145 159.122 189.899 159.351 189.608 159.488C189.316 159.629 189.004 159.681 188.675 159.645C188.349 159.61 188.026 159.493 187.706 159.291L185.822 158.106L187.067 156.127L185.657 155.24C185.495 155.138 185.322 155.079 185.139 155.063C184.958 155.054 184.821 155.122 184.729 155.268C184.632 155.422 184.627 155.571 184.714 155.713C184.798 155.86 184.931 155.991 185.113 156.105L185.823 156.552L185.123 157.666L184.376 157.196C183.874 156.881 183.555 156.49 183.419 156.023C183.284 155.563 183.371 155.087 183.682 154.593ZM188.003 156.716L187.459 157.581L188.371 158.155C188.549 158.267 188.723 158.332 188.893 158.351C189.064 158.376 189.201 158.308 189.303 158.146C189.398 157.996 189.398 157.842 189.305 157.684C189.215 157.528 189.085 157.397 188.915 157.29L188.003 156.716Z" fill="black"/>
<path d="M179.158 161.272L187.17 167.728L186.283 168.829L178.27 162.373L179.158 161.272Z" fill="black"/>
<path d="M172.824 168.239C173.227 167.844 173.676 167.668 174.17 167.713C174.668 167.76 175.121 167.992 175.53 168.409L178.216 171.147C178.625 171.563 178.847 172.019 178.881 172.515C178.92 173.013 178.737 173.46 178.334 173.856C177.934 174.248 177.485 174.42 176.988 174.372C176.49 174.331 176.036 174.103 175.628 173.686L172.942 170.948C172.533 170.532 172.311 170.073 172.277 169.571C172.242 169.075 172.424 168.631 172.824 168.239ZM173.687 169.119C173.557 169.246 173.517 169.386 173.569 169.538C173.623 169.694 173.731 169.853 173.891 170.017L176.577 172.755C176.741 172.921 176.898 173.032 177.049 173.086C177.201 173.14 177.341 173.104 177.471 172.976C177.601 172.849 177.64 172.709 177.589 172.557C177.538 172.404 177.43 172.245 177.267 172.078L174.58 169.34C174.417 169.174 174.26 169.063 174.108 169.009C173.957 168.955 173.817 168.991 173.687 169.119Z" fill="black"/>
<path d="M165.368 171.542L171.564 179.758L170.436 180.609L170.132 180.207C170.092 180.448 170.03 180.676 169.946 180.89C169.863 181.105 169.75 181.266 169.609 181.373C169.415 181.519 169.21 181.58 168.993 181.557C168.776 181.54 168.567 181.464 168.365 181.329C168.161 181.197 167.984 181.032 167.835 180.835L164.893 176.934C164.744 176.736 164.633 176.519 164.559 176.282C164.489 176.049 164.475 175.826 164.518 175.612C164.561 175.398 164.676 175.221 164.862 175.08C165.019 174.962 165.208 174.895 165.43 174.88C165.655 174.868 165.888 174.874 166.128 174.898L164.239 172.394L165.368 171.542ZM166.166 175.763C166.081 175.827 166.039 175.9 166.041 175.98C166.039 176.063 166.078 176.157 166.156 176.261L168.745 179.693C168.851 179.834 168.952 179.925 169.046 179.965C169.137 180.007 169.225 179.996 169.311 179.932C169.393 179.87 169.452 179.77 169.488 179.632C169.527 179.497 169.505 179.376 169.424 179.268L166.836 175.836C166.768 175.747 166.66 175.697 166.512 175.686C166.363 175.675 166.248 175.701 166.166 175.763Z" fill="black"/>
<path d="M157.405 179.982C157.896 179.703 158.379 179.652 158.855 179.827C159.328 180.009 159.705 180.345 159.983 180.836L161.885 184.184C162.18 184.703 162.28 185.205 162.184 185.688C162.089 186.172 161.789 186.557 161.286 186.843C160.957 187.029 160.633 187.114 160.312 187.098C159.988 187.084 159.689 186.983 159.415 186.794C159.144 186.61 158.915 186.354 158.729 186.025L157.629 184.09L159.662 182.935L158.839 181.486C158.745 181.32 158.621 181.186 158.467 181.086C158.311 180.992 158.159 180.987 158.008 181.073C157.85 181.162 157.776 181.291 157.784 181.457C157.789 181.626 157.845 181.804 157.951 181.991L158.365 182.721L157.221 183.371L156.786 182.604C156.493 182.089 156.397 181.594 156.497 181.118C156.595 180.649 156.898 180.27 157.405 179.982ZM160.208 183.896L159.32 184.401L159.852 185.339C159.956 185.521 160.078 185.661 160.219 185.758C160.358 185.861 160.511 185.866 160.678 185.771C160.832 185.684 160.905 185.548 160.897 185.365C160.892 185.185 160.84 185.008 160.741 184.834L160.208 183.896Z" fill="black"/>
<path d="M150.341 183.703L153.277 190.776L151.971 191.318L151.643 190.53C151.689 190.713 151.673 190.899 151.595 191.088C151.517 191.277 151.399 191.45 151.241 191.606C151.08 191.764 150.902 191.883 150.708 191.964L150.107 190.516C150.172 190.514 150.237 190.502 150.304 190.479C150.368 190.463 150.43 190.442 150.49 190.417C150.775 190.299 150.971 190.127 151.079 189.9C151.187 189.673 151.185 189.426 151.074 189.159L149.035 184.245L150.341 183.703Z" fill="black"/>
<path d="M134.98 191.753L135.209 193.063L133.209 193.412L132.98 192.102L134.98 191.753Z" fill="black"/>
</svg>
