<svg width="521" height="170" viewBox="0 0 521 170" fill="none" xmlns="http://www.w3.org/2000/svg">
<g clip-path="url(#clip0_124_4)">
<path d="M0 52V50C0 22.3858 22.3858 0 50 0H471C498.614 0 521 22.3858 521 50V52C521 79.6142 498.614 102 471 102H404C385.222 102 370 117.222 370 136C370 154.778 354.778 170 336 170H186C167.222 170 152 154.778 152 136C152 117.222 136.778 102 118 102H50C22.3858 102 0 79.6142 0 52Z" fill="#F059AB"/>
</g>
<defs>
<clipPath id="clip0_124_4">
<rect width="521" height="170" fill="white"/>
</clipPath>
</defs>
</svg>
